<svg xmlns="http://www.w3.org/2000/svg" viewBox="0 0 17.801 17.8">
  <defs>
    <style>
      .cls-1 {
        fill: #1e1e1e;
      }
    </style>
  </defs>
  <path id="if_facebook-official_1608690" class="cls-1" d="M144.815,128a.989.989,0,0,1,.985.985v15.83a.989.989,0,0,1-.985.985h-4.531v-6.9h2.306l.348-2.689h-2.654V134.5a1.485,1.485,0,0,1,.272-.973,1.351,1.351,0,0,1,1.06-.324l1.414-.012v-2.4a15.533,15.533,0,0,0-2.063-.1,3.442,3.442,0,0,0-2.52.927,3.5,3.5,0,0,0-.944,2.619v1.982h-2.318V138.9H137.5v6.9h-8.517a.989.989,0,0,1-.985-.985v-15.83a.989.989,0,0,1,.985-.985Z" transform="translate(-128 -128)"/>
</svg>
