<svg xmlns="http://www.w3.org/2000/svg" width="13.678" height="14.2" viewBox="0 0 13.678 14.2">
  <path id="Path_206" data-name="Path 206" d="M837.677,700.993a7.094,7.094,0,0,0-5.891,3.138h.487v.688a2.273,2.273,0,0,1,1.888-.867,2.179,2.179,0,0,1,1.849.778,2.783,2.783,0,0,1,1.976-.778,1.962,1.962,0,0,1,1.862.956,3.8,3.8,0,0,1,.178,1.531v4.335h-1.936v-3.494a5.036,5.036,0,0,0-.077-1.136.857.857,0,0,0-.853-.6,1.049,1.049,0,0,0-.64.2c-.368.293-.368.675-.368,1.4v3.621h-1.938v-3.941a1.709,1.709,0,0,0-.192-.943.963.963,0,0,0-.765-.344,1.008,1.008,0,0,0-.536.153,1.42,1.42,0,0,0-.446,1.287v3.787H831.1a7.1,7.1,0,1,0,6.574-9.78" transform="translate(-831.102 -700.993)" fill="#fe4124"/>
</svg>
