<svg xmlns="http://www.w3.org/2000/svg" width="148.747" height="92.627" viewBox="0 0 148.747 92.627"><g transform="translate(-289 -16.973)"><g transform="translate(289 92.851)"><g transform="translate(0 0)"><path d="M653.034,983.24h2.848v-9.8h-2.848Zm0-11.019h2.848v-2.228h-2.848Zm5.611,7.721a4.176,4.176,0,0,0,2.847,1.347c.693,0,1.744-.223,1.744-.953a.6.6,0,0,0-.375-.563,6.14,6.14,0,0,0-1.668-.374,11.923,11.923,0,0,1-1.312-.3,3.663,3.663,0,0,1-1.629-.846,2.626,2.626,0,0,1-.731-1.835c0-1.611,1.387-3.279,4.123-3.279a7.157,7.157,0,0,1,4.366,1.464l-1.781,1.648a4.1,4.1,0,0,0-2.455-.975c-1.125,0-1.386.449-1.386.73,0,.563.618.674,1.556.843,1.968.356,4.253.883,4.253,3.205,0,2.3-2.323,3.428-4.629,3.428a6.454,6.454,0,0,1-4.741-1.892Zm9.508-9.312h2.867v3.054h1.891v1.763H671v4.4c-.02.6-.02,1.106.748,1.106l1.031-.038v2.246a9.17,9.17,0,0,1-1.518.15,2.987,2.987,0,0,1-2.7-.955,3.781,3.781,0,0,1-.412-2.211v-4.72h-1.425v-1.763h1.425V970.63Zm6.068-.637h2.847v2.228h-2.847Zm0,3.446h2.847v9.8h-2.847Zm5.362-2.81h2.867v3.054h1.893v1.763h-1.91v4.4c-.021.6-.021,1.106.749,1.106l1.029-.038v2.246a9.113,9.113,0,0,1-1.517.15,2.987,2.987,0,0,1-2.7-.955,3.773,3.773,0,0,1-.413-2.211v-4.72H678.16v-1.763h1.424V970.63Zm11.841,2.827h2.884v9.783h-2.884V982.3a2.672,2.672,0,0,1-.977.768,4.049,4.049,0,0,1-1.854.448,2.982,2.982,0,0,1-2.494-1.029c-.5-.71-.6-1.292-.6-2.886v-6.146h2.906v6.072a1.946,1.946,0,0,0,.224,1.162,1.429,1.429,0,0,0,1.142.487,1.917,1.917,0,0,0,.992-.245,1.4,1.4,0,0,0,.659-1.385v-6.091Zm5.387-2.827h2.867v3.054h1.893v1.763h-1.911v4.4c-.018.6-.018,1.106.748,1.106l1.03-.038v2.246a9.141,9.141,0,0,1-1.517.15,2.987,2.987,0,0,1-2.7-.955,3.772,3.772,0,0,1-.412-2.211v-4.72h-1.423v-1.763h1.423V970.63Zm15.725,7.7a4.889,4.889,0,0,1-5.246,5.189c-2.755,0-5.265-1.572-5.265-5.189,0-3,1.891-5.375,5.639-5.17a4.894,4.894,0,0,1,4.872,5.17m-7.122-1.931a3.571,3.571,0,0,0-.486,1.913c0,1.555.751,2.924,2.362,2.924,1.556,0,2.323-1.257,2.323-2.793a3.318,3.318,0,0,0-.806-2.455,2.08,2.08,0,0,0-1.686-.542,1.949,1.949,0,0,0-1.706.952" transform="translate(-653.034 -969.993)" fill="#bcbcbb"/></g><g transform="translate(60.977 0)"><path d="M834.058,974.49a3.335,3.335,0,0,1,2.771-1.274,3.2,3.2,0,0,1,2.718,1.142,4.093,4.093,0,0,1,2.9-1.142,2.879,2.879,0,0,1,2.734,1.406,5.488,5.488,0,0,1,.266,2.248v6.371H842.6v-5.135a7.422,7.422,0,0,0-.113-1.669,1.261,1.261,0,0,0-1.256-.878,1.542,1.542,0,0,0-.935.3c-.545.432-.545.993-.545,2.061v5.323H836.9v-5.792a2.532,2.532,0,0,0-.282-1.385,1.424,1.424,0,0,0-1.122-.505,1.483,1.483,0,0,0-.788.224,2.088,2.088,0,0,0-.656,1.894v5.565h-2.85v-9.764h2.85Zm12.905,1.745a2.72,2.72,0,0,1,1.03-2.175,5.019,5.019,0,0,1,3.2-.861c1.2,0,4.1.278,4.1,2.81v5.7c0,1.048.057,1.2.283,1.537h-2.83v-.9a4.6,4.6,0,0,1-3,1.162,2.969,2.969,0,0,1-3.2-2.98,3.164,3.164,0,0,1,2.064-2.81,25.133,25.133,0,0,1,3.859-.9v-.526c-.036-.449-.074-1.2-1.1-1.2-1.276,0-1.443.788-1.52,1.146h-2.884Zm3.654,2.938c-.486.188-1.238.468-1.238,1.219a1.046,1.046,0,0,0,1.087.992,1.882,1.882,0,0,0,.991-.32c.958-.6,1-1.5,1.014-2.51Zm9.065-4.7a4.536,4.536,0,0,1,2.828-1.126V975.9l-.956.151c-1.384.242-1.8.447-1.8,1.686v5.508h-2.885v-9.8h2.81Zm3.789,1.763a2.717,2.717,0,0,1,1.034-2.175,5,5,0,0,1,3.2-.861c1.2,0,4.1.278,4.1,2.81v5.7c0,1.048.058,1.2.284,1.537h-2.829v-.9a4.6,4.6,0,0,1-3,1.162,2.967,2.967,0,0,1-3.2-2.98,3.162,3.162,0,0,1,2.061-2.81,25.315,25.315,0,0,1,3.861-.9v-.526c-.039-.449-.078-1.2-1.109-1.2-1.274,0-1.442.788-1.514,1.146H863.47Zm3.655,2.938c-.488.188-1.233.468-1.233,1.219a1.043,1.043,0,0,0,1.083.992,1.9,1.9,0,0,0,.995-.32c.954-.6.991-1.5,1.012-2.51Zm9.195-4.833a2.764,2.764,0,0,1,.973-.77,4.761,4.761,0,0,1,1.778-.355,3.73,3.73,0,0,1,1.745.393c1.029.545,1.291,1.423,1.291,2.942v6.691h-2.865v-5.508a3.874,3.874,0,0,0-.131-1.462,1.309,1.309,0,0,0-1.294-.749c-1.519,0-1.519,1.217-1.519,2.433v5.286h-2.885v-9.764h2.908v.864Zm13.667,7.606a4.154,4.154,0,0,1-2.583.825,4,4,0,0,1-2.232-.636,4.543,4.543,0,0,1-1.817-4.05c0-1.965.918-4.8,4.158-4.8a3.413,3.413,0,0,1,2.624,1.069v-.919h2.7v9.407c-.041,1.069-.079,2.326-1.5,3.147a7.017,7.017,0,0,1-3.329.75,5.321,5.321,0,0,1-3.751-1.22,2.993,2.993,0,0,1-.75-2.283h2.983a1.442,1.442,0,0,0,.839,1.4,1.986,1.986,0,0,0,.916.187c1.744,0,1.744-1.029,1.744-1.836v-1.048Zm-3.656-3.878c0,.823.062,2.53,1.836,2.53,1.465,0,1.8-1.142,1.8-2.53a4.093,4.093,0,0,0-.355-1.911,1.714,1.714,0,0,0-1.574-.711c-1.367.056-1.71,1.234-1.71,2.622m18.249.262a4.888,4.888,0,0,1-5.245,5.189c-2.757,0-5.268-1.572-5.268-5.189,0-3,1.895-5.375,5.641-5.17a4.895,4.895,0,0,1,4.871,5.17m-7.12-1.93a3.563,3.563,0,0,0-.488,1.913c0,1.555.752,2.924,2.363,2.924,1.554,0,2.32-1.257,2.32-2.793a3.308,3.308,0,0,0-.806-2.455,2.074,2.074,0,0,0-1.685-.542,1.944,1.944,0,0,0-1.7.952m11.292-2.059a2.806,2.806,0,0,1,.971-.77,4.763,4.763,0,0,1,1.782-.355,3.7,3.7,0,0,1,1.74.393c1.034.545,1.295,1.423,1.295,2.942v6.691h-2.868v-5.508a3.892,3.892,0,0,0-.129-1.462,1.312,1.312,0,0,0-1.291-.749c-1.521,0-1.521,1.217-1.521,2.433v5.286h-2.884v-9.764h2.907v.864Zm7.382-4.346h2.845v2.228h-2.845Zm0,3.446h2.845v9.8h-2.845Z" transform="translate(-831.208 -969.994)" fill="#fff"/></g></g><path d="M860.444,700.993a31.662,31.662,0,0,0-26.293,14h2.174v3.069a10.145,10.145,0,0,1,8.425-3.87c4.893,0,6.661,1.822,8.253,3.471a12.421,12.421,0,0,1,8.82-3.471c4.893,0,7.4,2.448,8.308,4.267.736,1.594.793,3.642.793,6.832v19.349h-8.642V729.05a22.523,22.523,0,0,0-.343-5.07,3.825,3.825,0,0,0-3.809-2.668,4.682,4.682,0,0,0-2.856.909c-1.645,1.309-1.645,3.011-1.645,6.259v16.163h-8.65V727.056a7.63,7.63,0,0,0-.857-4.208,4.3,4.3,0,0,0-3.413-1.535,4.494,4.494,0,0,0-2.392.682c-1.935,1.308-1.992,3.7-1.992,5.745v16.9H831.1a31.69,31.69,0,1,0,29.341-43.65" transform="translate(-495.14 -684.02)" fill="#fff"/></g></svg>