<svg xmlns="http://www.w3.org/2000/svg" viewBox="0 0 395.301 57.601">
  <defs>
    <style>
      .cls-1 {
        fill: #122423;
      }

      .cls-2 {
        fill: #1e1e1e;
        font-size: 38px;
        font-family: SegoeUI-Bold, Segoe UI;
        font-weight: 700;
      }
    </style>
  </defs>
  <g id="Group_3167" data-name="Group 3167" transform="translate(-770 -758.817)">
    <path id="Path_200" data-name="Path 200" class="cls-1" d="M855.877,700.993a26.734,26.734,0,0,0-22.2,11.823h1.836v2.591a8.566,8.566,0,0,1,7.113-3.268c4.131,0,5.624,1.538,6.968,2.93a10.487,10.487,0,0,1,7.447-2.93c4.131,0,6.249,2.067,7.015,3.6.621,1.346.669,3.075.669,5.768v16.337h-7.3V724.683a19.016,19.016,0,0,0-.29-4.28,3.23,3.23,0,0,0-3.217-2.253,3.953,3.953,0,0,0-2.411.768c-1.389,1.105-1.389,2.542-1.389,5.285v13.647h-7.3V723a6.441,6.441,0,0,0-.723-3.553,3.627,3.627,0,0,0-2.882-1.3,3.793,3.793,0,0,0-2.02.576c-1.634,1.1-1.682,3.121-1.682,4.851v14.272H831.1a26.757,26.757,0,1,0,24.774-36.855" transform="translate(282.661 61.913)"/>
    <text id="Istituto_Marangoni" data-name="Istituto Marangoni" class="cls-2" transform="translate(770 799.817)"><tspan x="0" y="0">Istituto Marangoni</tspan></text>
  </g>
</svg>
