<svg xmlns="http://www.w3.org/2000/svg" viewBox="0 0 433.7 63.546">
  <defs>
    <style>
      .cls-1 {
        fill: #1e1e1e;
        font-size: 38px;
        font-family: SegoeUI-Bold, Segoe UI;
        font-weight: 700;
      }

      .cls-2 {
        fill: #122423;
      }
    </style>
  </defs>
  <g id="Group_2458" data-name="Group 2458" transform="translate(-705.3 -4383.474)">
    <text id="Поступайте_с_нами" data-name="Поступайте с нами" class="cls-1" transform="translate(789 4427.817)"><tspan x="0" y="0">Поступайте с нами</tspan></text>
    <path id="Path_38" data-name="Path 38" class="cls-2" d="M860.523,700.993a31.746,31.746,0,0,0-26.363,14.04h2.18v3.077a10.172,10.172,0,0,1,8.447-3.88c4.906,0,6.679,1.827,8.275,3.48a12.454,12.454,0,0,1,8.844-3.48c4.906,0,7.421,2.454,8.331,4.279.737,1.6.795,3.651.795,6.85v19.4h-8.665V729.125a22.586,22.586,0,0,0-.344-5.083,3.836,3.836,0,0,0-3.82-2.675,4.694,4.694,0,0,0-2.864.912c-1.65,1.313-1.65,3.019-1.65,6.276v16.206h-8.673V727.125a7.65,7.65,0,0,0-.859-4.219,4.308,4.308,0,0,0-3.422-1.54,4.506,4.506,0,0,0-2.4.684c-1.94,1.312-2,3.706-2,5.76v16.948H831.1a31.775,31.775,0,1,0,29.42-43.766" transform="translate(-125.803 3682.48)"/>
  </g>
</svg>
