<svg xmlns="http://www.w3.org/2000/svg" viewBox="0 0 17.801 17.8">
  <defs>
    <style>
      .cls-1 {
        fill: none;
      }

      .cls-2 {
        fill: #1e1e1e;
        fill-rule: evenodd;
      }
    </style>
  </defs>
  <g id="if_Twitter_1298770" transform="translate(0.002)">
    <g id="Twitter" transform="translate(-0.002)">
      <rect id="Rectangle_176" data-name="Rectangle 176" class="cls-1" width="17.8" height="17.8" transform="translate(0)"/>
      <path id="Twitter_1_" class="cls-2" d="M17.8,12.423a7.131,7.131,0,0,1-2.1.589,3.737,3.737,0,0,0,1.606-2.071,7.192,7.192,0,0,1-2.321.908,3.6,3.6,0,0,0-2.665-1.182,3.7,3.7,0,0,0-3.65,3.744,3.82,3.82,0,0,0,.094.853A10.283,10.283,0,0,1,1.237,11.35a3.813,3.813,0,0,0-.494,1.885,3.769,3.769,0,0,0,1.625,3.117,3.586,3.586,0,0,1-1.655-.467v.046A3.723,3.723,0,0,0,3.643,19.6a3.481,3.481,0,0,1-.962.132,3.548,3.548,0,0,1-.688-.066,3.666,3.666,0,0,0,3.411,2.6,7.21,7.21,0,0,1-4.535,1.6A7.294,7.294,0,0,1,0,23.819,10.168,10.168,0,0,0,5.6,25.5c6.718,0,10.39-5.705,10.39-10.654,0-.163,0-.326-.009-.485A7.49,7.49,0,0,0,17.8,12.423" transform="translate(0.002 -9.184)"/>
    </g>
  </g>
</svg>
