<svg xmlns="http://www.w3.org/2000/svg" viewBox="0 0 36.67 14.545">
  <defs>
    <style>
      .cls-1 {
        fill: #1e1e1e;
      }
    </style>
  </defs>
  <g id="if_Youtube_106249" transform="translate(-8.426 -160.532)">
    <path id="Path_11" data-name="Path 11" class="cls-1" d="M229.15,164.758c-.068-.633-.125-1.345-.254-1.965a2.608,2.608,0,0,0-.873-1.413,4.041,4.041,0,0,0-2.732-.687c-.368-.012-.729-.048-1.1-.059-1.474-.044-2.926-.094-4.4-.1h-3.616c-.3.006-.59.024-.886.024-.747,0-1.456.031-2.2.062-.364.015-.735,0-1.1.034s-.73.045-1.1.055a3.475,3.475,0,0,0-1.854.434,2.683,2.683,0,0,0-1.064,1.224c-.416.955-.576,4.975-.51,6.284a28.833,28.833,0,0,0,.374,4.129,2.627,2.627,0,0,0,2.507,2.068c2.326.168,4.3.164,6.608.23l.085,0h2.433c.292-.005.581-.022.873-.025.386,0,.77.007,1.155,0,1.09-.02,2.182-.078,3.266-.129.372-.017.735-.018,1.107-.048a3.413,3.413,0,0,0,1.845-.442c1.185-.746,1.267-1.84,1.386-3.165.064-.713.123-1.409.163-2.125A27.887,27.887,0,0,0,229.15,164.758Zm-15.294-.58-1.55.015v8.116l-1.349.024c-.059-.209-.024-3.554-.024-4.07v-4.07l-1.477-.016c-.017-.049-.016-.025-.016-.081v-1.2l4.415.015v1.271Zm3.867,8.131h-1.252v-.746c-.072.02-.3.331-.387.383l-.29.215a2.934,2.934,0,0,1-.444.209,1.069,1.069,0,0,1-.562.034.728.728,0,0,1-.632-.668,5.523,5.523,0,0,1-.069-1.232v-5.178h1.228v5.323c0,.069.007.12.011.181.014.238.038.591.516.441.138-.043.61-.434.631-.593v-5.351h1.252Zm4.839-1.782-.055.788a1.685,1.685,0,0,1-.214.653,1.124,1.124,0,0,1-1.733.1l-.454-.412v.65l-1.252.024c.061-.209.024-4.151.024-4.72,0-.3-.019-4.551,0-4.72h1.228v3.083c.136-.046.405-.513.984-.7a1.015,1.015,0,0,1,1.207.412,2,2,0,0,1,.24,1.036c0,.149.026.255.025.409v3.4Zm2.582.668c.186.156.978.288.98-.669l.025-.6H227.4a5.539,5.539,0,0,1-.08,1.22,1.884,1.884,0,0,1-3.657-.371,7.91,7.91,0,0,1-.066-1.258V168.19c0-1.072-.032-2.338,1.129-2.82a1.842,1.842,0,0,1,2.546,1.143,10.548,10.548,0,0,1,.114,2.5c-.136.065-2.206.023-2.537.023v1.228A1.071,1.071,0,0,0,225.144,171.194Z" transform="translate(-184.21 0)"/>
    <path id="Path_12" data-name="Path 12" d="M11.675,201.1c0-1.216-.024-2.624,0-3.83,0-.159.339-1.133.4-1.357l1.273-4.306-1.456-.018a.031.031,0,0,0-.008.016l-.182.637c-.03.171-.221.824-.237.918-.034.2-.391,1.5-.468,1.819l-.043.246c-.049-.077-.669-2.454-.753-2.715-.074-.23-.154-.7-.258-.922H8.425c0,.259.705,2.009.8,2.4s.3.8.4,1.188l.36,1.254c.064.218.109.418.155.64.109.53-.006,3.652.042,3.955.022.139.169.1.289.1a10.294,10.294,0,0,0,1.2-.024Z" transform="translate(0 -28.745)"/>
    <path id="Path_13" data-name="Path 13" d="M141.376,231.535l.015.708h1.295c.043-.148.018-6.132.015-7.018h-1.326c0,.044,0,.118,0,.242,0,1.726-.006,3.4.024,5.129a1.778,1.778,0,0,1-.505.434.6.6,0,0,1-.379.091c-.146-.036-.161-.163-.2-.287-.063-.223-.03-4.769-.027-5.609h-1.328c0,.016,0,.031,0,.046-.018.471,0,.994,0,1.472v4.407c0,.321.106.885.413,1.056a.978.978,0,0,0,.576.149,1.312,1.312,0,0,0,.593-.153,3.749,3.749,0,0,0,.826-.667Z" transform="translate(-120.817 -59.877)"/>
    <path id="Path_14" data-name="Path 14" d="M75.192,228.261c-.013-.08,0-2.849,0-3.01,0-.363-.042-.955.332-1.161a.567.567,0,0,1,.59.071.964.964,0,0,1,.229.541c.021.123.005,2.807.005,3.005,0,.357.044.968-.341,1.152-.463.222-.749-.195-.815-.6Zm.217-5.395c-1.876.342-1.565,2.406-1.565,4a5.027,5.027,0,0,0,.345,2.448,1.858,1.858,0,0,0,1.934.795,1.763,1.763,0,0,0,1.447-1.322,11.946,11.946,0,0,0,.126-2.668,4.951,4.951,0,0,0-.341-2.453A1.868,1.868,0,0,0,75.408,222.867Z" transform="translate(-60.531 -57.663)"/>
    <path id="Path_15" data-name="Path 15" d="M377.709,238.434c-.612.18-.457.433-.457,1.084V242.6c0,.125-.006.264,0,.387.008.238.523.433.792.379.457-.091.438-.755.438-1.1v-1.541c0-.5.021-1.048,0-1.542-.019-.457-.246-.9-.771-.746Z" transform="translate(-341.355 -72.074)"/>
    <path id="Path_16" data-name="Path 16" d="M441.086,240.161h1.265c.024-.061.136-1.169-.192-1.507a.49.49,0,0,0-.441-.162c-.614,0-.65.607-.65,1.084A2.373,2.373,0,0,0,441.086,240.161Z" transform="translate(-400.429 -72.157)"/>
  </g>
</svg>
